<svg xmlns="http://www.w3.org/2000/svg" viewBox="0 0 76 14"><defs><style>.a{fill-rule:evenodd;}</style></defs><title>im labor</title><path class="a" d="M0,13.54H2.93V4.27H0Zm0-11H2.93V.19H0Zm5.28,11h2.9V8.44c0-1.34.52-2.2,1.7-2.2a1.49,1.49,0,0,1,1.53,1.44,1.23,1.23,0,0,1,0,.33v5.54h2.9V8.43c0-1.53.64-2.19,1.7-2.19a1.51,1.51,0,0,1,1.51,1.5,1.27,1.27,0,0,1,0,.28v5.53h2.88V8C20.35,5.18,18.83,4,16.89,4a3.5,3.5,0,0,0-3.12,1.51A2.76,2.76,0,0,0,11,4,3.28,3.28,0,0,0,8.15,5.37a10.66,10.66,0,0,0-.09-1.09H5.26c0,.8,0,1.59,0,2.39v6.87Zm25.43,0V.19H27.78V13.54ZM42.25,7.46c0-1.55-.57-3.44-4.6-3.44C34,4,33.18,5.87,33.1,7H36c.12-.53.4-1,1.67-1s1.69.61,1.69,1.36v.29h-2c-2.73,0-4.86.68-4.86,3.11h0c0,1.48,1,3,3.56,3,1.74,0,2.81-.49,3.31-1.29a5.35,5.35,0,0,0,.11,1h2.77c0-.2-.08-1.4-.08-2.6V7.46ZM39.39,9.65c0,1.32-.81,2.06-2.42,2.06-1.06,0-1.55-.49-1.55-1.09h0c0-.73.59-1.12,2.08-1.12h1.89v.14Zm5.6.8c0,1,0,1.75,0,3.09h2.8c0-.22,0-.8,0-1a3.22,3.22,0,0,0,3,1.29c2.61,0,4.71-1.89,4.71-5.07h0A4.51,4.51,0,0,0,51.22,4H51a3.71,3.71,0,0,0-3.08,1.25V.19H45V10.45Zm5.17,1a2.28,2.28,0,0,1-2.33-2.24c0-.12,0-.23,0-.35h0c0-1.56.72-2.59,2.34-2.59a2.29,2.29,0,0,1,2.32,2.27,2.64,2.64,0,0,1,0,.28h0c0,1.47-.76,2.63-2.33,2.63ZM62.37,4C58.86,4,57,6.36,57,8.91h0c0,2.56,1.76,4.89,5.21,4.89s5.41-2,5.41-4.9h0A4.9,4.9,0,0,0,62.74,4Zm0,2.21C64,6.23,64.65,7.55,64.65,9h0c0,1.41-.72,2.63-2.3,2.63A2.39,2.39,0,0,1,60,9.15a2.29,2.29,0,0,1,0-.25h0c0-1.43.72-2.67,2.31-2.67Zm7.17,7.31h2.93V10.15c0-2.64,1.47-3.48,3.57-3.45V4a3.47,3.47,0,0,0-3.57,2.08c0-.49,0-1.52-.09-1.85H69.48c0,.84,0,1.68,0,2.52v6.75Z"/></svg>
